<mxfile host="app.diagrams.net" agent="Mozilla/5.0 (Windows NT 10.0; Win64; x64) AppleWebKit/537.36 (KHTML, like Gecko) Chrome/127.0.0.0 Safari/537.36" version="24.7.6">
  <diagram name="Page-1" id="5f0bae14-7c28-e335-631c-24af17079c00">
    <mxGraphModel dx="1235" dy="692" grid="1" gridSize="10" guides="1" tooltips="1" connect="1" arrows="1" fold="1" page="1" pageScale="1" pageWidth="1100" pageHeight="850" background="none" math="0" shadow="0">
      <root>
        <mxCell id="0" />
        <mxCell id="1" parent="0" />
        <mxCell id="XgFgxg-tl27f4BIiscXo-1" value="BACKEND" style="swimlane;whiteSpace=wrap;html=1;" vertex="1" parent="1">
          <mxGeometry x="355" y="40" width="390" height="190" as="geometry">
            <mxRectangle x="160" y="50" width="100" height="30" as="alternateBounds" />
          </mxGeometry>
        </mxCell>
        <mxCell id="XgFgxg-tl27f4BIiscXo-2" value="API&lt;div&gt;&lt;br&gt;&lt;/div&gt;&lt;div&gt;&lt;b&gt;GOJI&lt;/b&gt;&lt;/div&gt;" style="shape=cube;whiteSpace=wrap;html=1;boundedLbl=1;backgroundOutline=1;darkOpacity=0.05;darkOpacity2=0.1;" vertex="1" parent="XgFgxg-tl27f4BIiscXo-1">
          <mxGeometry x="50" y="65" width="110" height="90" as="geometry" />
        </mxCell>
        <mxCell id="XgFgxg-tl27f4BIiscXo-5" value="" style="edgeStyle=orthogonalEdgeStyle;rounded=0;orthogonalLoop=1;jettySize=auto;html=1;startArrow=classic;startFill=1;" edge="1" parent="XgFgxg-tl27f4BIiscXo-1" source="XgFgxg-tl27f4BIiscXo-3" target="XgFgxg-tl27f4BIiscXo-2">
          <mxGeometry relative="1" as="geometry" />
        </mxCell>
        <mxCell id="XgFgxg-tl27f4BIiscXo-3" value="DB&lt;div&gt;&lt;br&gt;&lt;/div&gt;&lt;div&gt;&lt;b&gt;ACEBASE&lt;/b&gt;&lt;/div&gt;" style="shape=cylinder3;whiteSpace=wrap;html=1;boundedLbl=1;backgroundOutline=1;size=15;" vertex="1" parent="XgFgxg-tl27f4BIiscXo-1">
          <mxGeometry x="260" y="65" width="80" height="90" as="geometry" />
        </mxCell>
        <mxCell id="XgFgxg-tl27f4BIiscXo-7" value="Desktop" style="swimlane;whiteSpace=wrap;html=1;" vertex="1" parent="1">
          <mxGeometry x="130" y="350" width="390" height="200" as="geometry">
            <mxRectangle x="160" y="50" width="100" height="30" as="alternateBounds" />
          </mxGeometry>
        </mxCell>
        <mxCell id="XgFgxg-tl27f4BIiscXo-8" value="WEBAPP&lt;div&gt;&lt;br&gt;&lt;/div&gt;&lt;div&gt;&lt;b&gt;FLUTTER&lt;/b&gt;&lt;/div&gt;" style="shape=cube;whiteSpace=wrap;html=1;boundedLbl=1;backgroundOutline=1;darkOpacity=0.05;darkOpacity2=0.1;" vertex="1" parent="XgFgxg-tl27f4BIiscXo-7">
          <mxGeometry x="50" y="65" width="110" height="90" as="geometry" />
        </mxCell>
        <mxCell id="XgFgxg-tl27f4BIiscXo-12" value="" style="edgeStyle=orthogonalEdgeStyle;rounded=0;orthogonalLoop=1;jettySize=auto;html=1;startArrow=classic;startFill=1;" edge="1" parent="XgFgxg-tl27f4BIiscXo-7" source="XgFgxg-tl27f4BIiscXo-11" target="XgFgxg-tl27f4BIiscXo-8">
          <mxGeometry relative="1" as="geometry" />
        </mxCell>
        <mxCell id="XgFgxg-tl27f4BIiscXo-11" value="Desktop APP&lt;div&gt;&lt;br&gt;&lt;/div&gt;&lt;div&gt;&lt;b&gt;FLUTTER&lt;/b&gt;&lt;/div&gt;" style="shape=cube;whiteSpace=wrap;html=1;boundedLbl=1;backgroundOutline=1;darkOpacity=0.05;darkOpacity2=0.1;" vertex="1" parent="XgFgxg-tl27f4BIiscXo-7">
          <mxGeometry x="230" y="65" width="110" height="90" as="geometry" />
        </mxCell>
        <mxCell id="XgFgxg-tl27f4BIiscXo-13" value="Mobile" style="swimlane;whiteSpace=wrap;html=1;startSize=23;" vertex="1" parent="1">
          <mxGeometry x="600" y="350" width="390" height="200" as="geometry">
            <mxRectangle x="160" y="50" width="100" height="30" as="alternateBounds" />
          </mxGeometry>
        </mxCell>
        <mxCell id="XgFgxg-tl27f4BIiscXo-14" value="Android&lt;div&gt;&lt;br&gt;&lt;/div&gt;&lt;div&gt;&lt;b&gt;FLUTTER&lt;/b&gt;&lt;/div&gt;" style="shape=cube;whiteSpace=wrap;html=1;boundedLbl=1;backgroundOutline=1;darkOpacity=0.05;darkOpacity2=0.1;" vertex="1" parent="XgFgxg-tl27f4BIiscXo-13">
          <mxGeometry x="50" y="65" width="110" height="90" as="geometry" />
        </mxCell>
        <mxCell id="XgFgxg-tl27f4BIiscXo-15" value="" style="edgeStyle=orthogonalEdgeStyle;rounded=0;orthogonalLoop=1;jettySize=auto;html=1;startArrow=classic;startFill=1;" edge="1" parent="XgFgxg-tl27f4BIiscXo-13" source="XgFgxg-tl27f4BIiscXo-16" target="XgFgxg-tl27f4BIiscXo-14">
          <mxGeometry relative="1" as="geometry" />
        </mxCell>
        <mxCell id="XgFgxg-tl27f4BIiscXo-16" value="&lt;div&gt;IOS&lt;/div&gt;&lt;div&gt;&lt;br&gt;&lt;/div&gt;&lt;div&gt;&lt;b&gt;FLUTTER&lt;/b&gt;&lt;/div&gt;" style="shape=cube;whiteSpace=wrap;html=1;boundedLbl=1;backgroundOutline=1;darkOpacity=0.05;darkOpacity2=0.1;" vertex="1" parent="XgFgxg-tl27f4BIiscXo-13">
          <mxGeometry x="230" y="65" width="110" height="90" as="geometry" />
        </mxCell>
        <mxCell id="XgFgxg-tl27f4BIiscXo-17" style="edgeStyle=orthogonalEdgeStyle;rounded=0;orthogonalLoop=1;jettySize=auto;html=1;entryX=0.5;entryY=0;entryDx=0;entryDy=0;" edge="1" parent="1" source="XgFgxg-tl27f4BIiscXo-2" target="XgFgxg-tl27f4BIiscXo-7">
          <mxGeometry relative="1" as="geometry">
            <Array as="points">
              <mxPoint x="460" y="280" />
              <mxPoint x="325" y="280" />
            </Array>
          </mxGeometry>
        </mxCell>
        <mxCell id="XgFgxg-tl27f4BIiscXo-18" style="edgeStyle=orthogonalEdgeStyle;rounded=0;orthogonalLoop=1;jettySize=auto;html=1;entryX=0.5;entryY=0;entryDx=0;entryDy=0;" edge="1" parent="1" source="XgFgxg-tl27f4BIiscXo-2" target="XgFgxg-tl27f4BIiscXo-13">
          <mxGeometry relative="1" as="geometry">
            <Array as="points">
              <mxPoint x="460" y="280" />
              <mxPoint x="795" y="280" />
            </Array>
          </mxGeometry>
        </mxCell>
      </root>
    </mxGraphModel>
  </diagram>
</mxfile>
